<svg xmlns="http://www.w3.org/2000/svg" width="50" height="50" fill="none"><g filter="url(#a)"><path fill="#FF6363" d="M31.667 5a7.567 7.567 0 0 0-3.727.985A8.632 8.632 0 0 0 25 8.744c-1.05-1.573-2.514-2.734-4.184-3.32a7.457 7.457 0 0 0-5.119.058c-1.658.623-3.101 1.817-4.123 3.413C10.55 10.49 10 12.408 10 14.375c0 11.229 13.867 20.094 14.457 20.466.166.104.353.159.543.159.19 0 .377-.055.543-.16a44.728 44.728 0 0 0 7.145-5.864C37.54 24.063 40 19.151 40 14.375c-.002-2.486-.881-4.868-2.444-6.626-1.562-1.758-3.68-2.746-5.89-2.749Z"/></g><defs><filter id="a" width="50" height="50" x="0" y="0" color-interpolation-filters="sRGB" filterUnits="userSpaceOnUse"><feFlood flood-opacity="0" result="BackgroundImageFix"/><feColorMatrix in="SourceAlpha" result="hardAlpha" values="0 0 0 0 0 0 0 0 0 0 0 0 0 0 0 0 0 0 127 0"/><feOffset dy="5"/><feGaussianBlur stdDeviation="5"/><feColorMatrix values="0 0 0 0 1 0 0 0 0 0.388235 0 0 0 0 0.388235 0 0 0 0.2 0"/><feBlend in2="BackgroundImageFix" result="effect1_dropShadow_1_591"/><feBlend in="SourceGraphic" in2="effect1_dropShadow_1_591" result="shape"/></filter></defs></svg>