<svg xmlns="http://www.w3.org/2000/svg" width="24" height="24" fill="none"><path fill="#000" d="M11.999 7.479a.798.798 0 0 0-.007-.081l-.002-.021-.75-4.5a.75.75 0 1 0-1.48.246l.605 3.627h-1.74V3a.75.75 0 0 0-1.5 0v3.75h-1.74l.605-3.627a.75.75 0 1 0-1.48-.246l-.75 4.5-.002.02a.797.797 0 0 0-.007.082L3.75 7.5v.034a4.13 4.13 0 0 0 3.375 4.021V21a.75.75 0 1 0 1.5 0v-9.445a4.13 4.13 0 0 0 3.374-4.021V7.52L12 7.5l-.001-.021ZM19.874 2.987a.725.725 0 0 0-.04-.23l-.004-.013-.006-.014a.656.656 0 0 0-.07-.137.787.787 0 0 0-.043-.06l-.02-.023a.73.73 0 0 0-.08-.08l-.026-.022a.842.842 0 0 0-.062-.043l-.027-.016a.743.743 0 0 0-.038-.02l-.026-.013a.772.772 0 0 0-.04-.016l-.028-.01a.734.734 0 0 0-.224-.04H19.11a.744.744 0 0 0-.23.041l-.012.004-.028.011-.01.004c-1.933.726-3.48 3.097-4.6 7.048a37.318 37.318 0 0 0-1.102 5.562.75.75 0 0 0 .746.83h4.5V21a.75.75 0 1 0 1.5 0V2.987Z"/></svg>